<svg version="1.1" id="Layer_1" xmlns="http://www.w3.org/2000/svg" xmlns:xlink="http://www.w3.org/1999/xlink" x="0px" y="0px"
	 viewBox="0 0 512 512" style="enable-background:new 0 0 512 512;" xml:space="preserve">
<g>
	<g>
		<g>
			<path fill="#00FFFF" d="M431.812,416.529c6.545-8.038,13.79-17.007,18.944-25.097c2.534-3.977,1.357-9.25-2.611-11.785
				c-3.959-2.534-9.25-1.357-11.785,2.611c-4.873,7.646-12.544,17.067-18.722,24.636l-3.14,3.866
				c-2.389,2.953-2.543,7.134-0.367,10.249l26.308,37.751l-45.978,32.845l-75.904-104.363
				c42.667-31.753,73.975-93.739,73.975-148.309c0-75.281-61.252-136.533-136.533-136.533s-136.533,61.252-136.533,136.533
				c0,54.571,31.309,116.557,73.975,148.309l-75.904,104.363l-45.978-32.845l26.308-37.751c2.176-3.115,2.022-7.296-0.367-10.249
				c-10.095-12.467-17.186-21.965-21.683-29.03c-2.534-3.977-7.834-5.154-11.785-2.62c-3.977,2.534-5.154,7.808-2.62,11.785
				c5.265,8.252,12.629,17.852,18.79,25.6l-27.469,39.424c-2.679,3.831-1.766,9.105,2.039,11.827l59.733,42.667
				c3.806,2.722,9.105,1.852,11.861-1.929l86.008-118.255c1.382-1.903,1.911-4.292,1.485-6.596c-0.435-2.313-1.801-4.344-3.78-5.606
				c-41.242-26.479-73.549-87.578-73.549-139.093c0-65.877,53.589-119.467,119.467-119.467s119.467,53.589,119.467,119.467
				c0,51.516-32.307,112.614-73.549,139.093c-1.98,1.263-3.345,3.294-3.772,5.606c-0.435,2.304,0.094,4.693,1.476,6.596
				l86.008,118.255c1.673,2.295,4.267,3.516,6.912,3.516c1.715,0,3.447-0.521,4.949-1.587l59.733-42.667
				c3.806-2.722,4.719-7.996,2.039-11.827L431.812,416.529z"/>
			<path fill="#00FFAA" d="M147.388,94.123c-9.66-9.677-26.539-9.677-36.207-0.009c-9.984,9.984-9.975,26.223,0.009,36.207
				c4.838,4.83,11.264,7.501,18.099,7.501s13.269-2.662,18.099-7.501C157.363,120.346,157.363,104.098,147.388,94.123z
				 M135.322,118.255c-3.217,3.234-8.849,3.217-12.066,0c-3.328-3.328-3.328-8.747-0.008-12.075
				c1.613-1.604,3.755-2.492,6.033-2.492c2.287,0,4.429,0.887,6.042,2.5C138.65,109.517,138.65,114.927,135.322,118.255z"/>
			<path fill="#00FFBB" d="M76.809,213.333c-6.844,0-13.278,2.662-18.108,7.501c-4.838,4.838-7.509,11.273-7.501,18.091
				c-0.009,6.844,2.662,13.278,7.501,18.116c4.838,4.83,11.273,7.492,18.116,7.492c14.097,0,25.574-11.486,25.591-25.617
				C102.383,224.819,90.897,213.342,76.809,213.333z M76.817,247.467h-0.009c-2.287,0-4.437-0.887-6.05-2.509
				c-1.613-1.604-2.492-3.738-2.492-6.033c0-2.27,0.879-4.412,2.5-6.016c1.613-1.621,3.755-2.509,6.033-2.509
				c4.702,0,8.533,3.831,8.542,8.525C85.342,243.635,81.519,247.467,76.817,247.467z"/>
			<path fill="#00FFCC" d="M460.8,238.95c0.009-6.827-2.645-13.252-7.467-18.091c-4.838-4.855-11.281-7.526-18.15-7.526
				c-14.089,0.017-25.566,11.494-25.591,25.617c0.034,14.106,11.529,25.583,25.6,25.583C449.314,264.533,460.8,253.039,460.8,238.95
				z M426.658,238.95c0.009-4.71,3.84-8.55,8.533-8.55c2.295,0,4.446,0.896,6.059,2.517c1.604,1.604,2.483,3.738,2.483,6.016
				c0,4.702-3.831,8.533-8.542,8.533C430.498,247.467,426.667,243.627,426.658,238.95z"/>
			<path fill="#00FFDD" d="M256,0C124.245,0,17.067,107.187,17.067,238.933c0,39.74,9.762,81.391,28.22,120.439c1.016,2.15,2.884,3.78,5.146,4.489
				c2.278,0.717,4.727,0.452,6.801-0.725l62.601-35.721c4.096-2.338,5.521-7.552,3.174-11.648
				c-2.338-4.087-7.535-5.521-11.639-3.183L56.9,343.671c-14.916-34.304-22.767-70.323-22.767-104.738
				c0-122.334,99.524-221.867,221.867-221.867s221.867,99.533,221.867,221.867c0,34.526-7.893,70.656-22.895,105.045L400.7,312.593
				c-4.096-2.372-9.31-0.973-11.657,3.115c-2.364,4.079-0.964,9.301,3.106,11.656l62.421,36.096c1.314,0.759,2.79,1.152,4.275,1.152
				c0.845,0,1.707-0.137,2.526-0.393c2.287-0.708,4.164-2.33,5.18-4.489c18.569-39.151,28.382-80.922,28.382-120.798
				C494.933,107.187,387.755,0,256,0z"/>
			<path fill="#00FFEE" d="M400.811,130.321c4.83-4.83,7.501-11.264,7.501-18.108c0-6.835-2.671-13.261-7.492-18.082
				c-9.651-9.685-26.539-9.702-36.215,0c-9.958,9.975-9.958,26.206,0.017,36.215c4.855,4.813,11.281,7.467,18.108,7.467
				C389.555,137.813,395.981,135.151,400.811,130.321z M376.687,118.272c-3.319-3.337-3.328-8.755-0.009-12.083
				c1.613-1.613,3.763-2.509,6.042-2.509c2.27,0,4.403,0.887,6.025,2.509c1.613,1.613,2.5,3.755,2.5,6.025
				c0,2.287-0.896,4.429-2.5,6.042C385.51,121.472,379.87,121.421,376.687,118.272z"/>
			<path fill="#00FF22" d="M281.6,59.733c0-14.114-11.486-25.6-25.6-25.6c-14.114,0-25.6,11.486-25.6,25.6s11.486,25.6,25.6,25.6
				C270.114,85.333,281.6,73.847,281.6,59.733z M247.467,59.733c0-4.702,3.823-8.533,8.533-8.533c4.71,0,8.533,3.831,8.533,8.533
				s-3.823,8.533-8.533,8.533C251.29,68.267,247.467,64.435,247.467,59.733z"/>
		</g>
	</g>
</g>
</svg>